<?xml version="1.0" encoding="utf-8"?>
<!-- Generator: Adobe Illustrator 24.2.1, SVG Export Plug-In . SVG Version: 6.00 Build 0)  -->
<svg version="1.1" id="レイヤー_1" xmlns="http://www.w3.org/2000/svg" xmlns:xlink="http://www.w3.org/1999/xlink" x="0px"
	 y="0px" viewBox="0 0 791.2 145.6" style="enable-background:new 0 0 791.2 145.6;" xml:space="preserve">
<style type="text/css">
	.st0{fill:#FFFFFF;}
</style>
<g>
	<path class="st0" d="M41,10.2H28.9v3.5H13.3v117.8h15.6v3.5H41v-3.5h15.6V13.7H41V10.2z M28.9,121.1h-3.5V24h3.5V121.1z M44.5,24
		v97H41V24H44.5z"/>
	<path class="st0" d="M60.1,10.2L60.1,10.2l0,97h15.6v3.5H60.1v10.4h15.6v3.5H60.1v10.4h43.3v-10.4H87.8v-3.5h15.6v-10.4H87.8v-3.5
		h15.6v0h0v-97L60.1,10.2L60.1,10.2z M87.8,20.6h3.5v32.9h-3.5V20.6z M87.8,63.9h3.5v32.9h-3.5V63.9z M72.2,20.6h3.5v32.9h-3.5V20.6
		z M72.2,63.9h3.5v32.9h-3.5V63.9z"/>
	<polygon class="st0" points="106.8,10.2 106.8,20.6 125.9,20.6 125.9,58.7 138,58.7 138,10.2 138,10.2 	"/>
	<polygon class="st0" points="110.3,124.5 106.8,124.5 106.8,134.9 122.4,134.9 122.4,76 110.3,76 	"/>
	<polygon class="st0" points="122.4,62.2 122.4,24 110.3,24 110.3,62.2 106.8,62.2 106.8,72.6 125.9,72.6 125.9,134.9 138,134.9 
		138,62.2 138,62.2 125.9,62.2 	"/>
</g>
<g>
	<path class="st0" d="M262,50.6c1.3-3,2.2-3.6,3-3.6c1,0,2.2,0.3,4.7,2.3c2.7,2.1,3.3,3,3.3,3.8c0,1-1,1.7-3,3v4.3
		c0,14.8,0.4,20.3,0.4,22.8c0,2.3-3,3.4-5.8,3.4c-1.3,0-2-0.6-2-1.7v-5.3h-23.7c0.2,24.8,0.5,30,0.5,32c0,1.8-3,3.3-6.3,3.3
		c-1.4,0-2.3-0.5-2.3-1.7c0-3.2,0.3-9.8,0.4-33.7h-23.2v6.7c0,2-2.5,3.2-5.7,3.2c-1.3,0-2.1-0.5-2.1-1.7c0-2.3,0.4-8.9,0.4-27.6
		c0-5.5,0-9.4-0.2-13.1c6,1.8,8.5,2.9,9.4,3.7h21.4v-0.3c0-10.3-0.1-15.4-0.4-19.5c10.4,1,11.7,1.7,11.7,2.8c0,0.9-0.8,1.8-4,2.9
		v14.1H262z M208.1,54.5v22.2h23.2c0.1-7.7,0.1-15.6,0.1-23.3h-22.3L208.1,54.5z M262.6,53.4h-23.8c0,7.7,0,15.6,0.1,23.3h23.7V53.4
		z"/>
	<path class="st0" d="M320.1,37.6c1.3-2.9,2.1-3.7,2.9-3.7c1,0,1.6,0.3,4.1,2.3c2.3,2,2.8,2.7,2.8,3.5c0,0.9-0.8,1.5-3.1,2.8V49
		c0,15.2,0.5,21.1,0.5,23.6c0,1.8-2,3-5,3c-1.2,0-1.8-0.4-1.8-1.5v-2.3h-8.6v13.1h7.6c1.7-2.1,3.1-3.8,5.1-5.8
		c7.6,5.7,8.2,6.6,8.2,7.5c0,0.6-0.5,1.1-1.4,1.1h-19.5v11.1c7-0.8,14-1.6,21.1-2.7l0.5,1.6c-14.9,4.6-28.4,7.8-39.9,9.8
		c-0.7,2.2-1.3,3.1-2.4,3.1c-1.3,0-2.1-1.4-4.8-9.7c6.4-0.5,12.7-0.9,19.1-1.4V87.6h-8.1l-8.6,0.5v-3.7l8.6,0.4h8.1V71.7h-8.5v2.6
		c0,2-2.4,3.1-4.9,3.1c-1.4,0-1.9-0.6-1.9-1.8c0-2.2,0.4-8.7,0.4-27.8c0-6.8,0-9.9-0.2-13.4c5,1.5,7.4,2.5,8.4,3.3H320.1z
		 M296.9,41.4v12h8.5v-13h-7.5L296.9,41.4z M296.9,68.9h8.5V56.2h-8.5V68.9z M320.5,40.4h-7c-0.1,1.2-0.6,1.8-1.6,2.2v10.8h8.6V40.4
		z M320.5,56.2h-8.6v12.7h8.6V56.2z M359,61.8c1.4-3,2.2-3.6,3.2-3.6c1.3,0,2.4,0.6,4.9,2.5c2.3,1.8,3,2.7,3,3.7c0,1.1-1.1,2-4,2.5
		c-3.8,4.5-8,8.7-12.3,12.1l-1.3-1.1c2.4-4,4.8-8.6,6.6-13.3h-7.3c-0.3,0.9-0.8,1.4-1.6,1.8v8.1c0,20.8,0.4,27.2,0.4,30.3
		c0,4.7-4.2,7.5-10.3,7.5c-0.6-3.8-2.8-5.7-8-6.9l0.2-1.6c2.6,0.3,5.6,0.5,8.4,0.5c2.1,0,2.7-0.5,2.7-2.5V64.6h-5.6l-7.9,0.5v-3.7
		l7.9,0.4H359z M354.2,37.4c1.7-3.1,2.5-3.9,3.5-3.9c1.3,0,2.5,0.8,5.1,2.8c2.3,1.9,3.1,2.6,3.1,3.8c0,1.1-0.8,2.1-4.1,2.4
		c-4,3.9-7.6,7-12.1,10.2c1.7,1.3,2.8,2.9,2.8,4.6c0,2.3-1.4,4-3.7,4c-1.7,0-2.9-0.9-3.7-2.7c-1.9-3.7-5.8-7-9.8-8.5l0.6-1.5
		c4.2,0.3,8.4,1.3,11.5,2.7c2.3-3.5,4.7-7.2,6.6-11.1H341l-8.5,0.5v-3.7l8.5,0.5H354.2z"/>
	<path class="st0" d="M384.4,85.8c10.6,1.4,20.3,5,25.7,9c4.5,3.2,6.3,5.8,6.3,8.6c0,2.6-1.8,4.2-4,4.2c-1.9,0-3.3-1.1-4.9-3.1
		c-5.9-7.4-14-12.7-23.7-16.7L384.4,85.8z M385.1,60.2c8.7,1.1,16.3,4,20.1,7.4c2.2,1.8,3.2,3.9,3.2,5.9c0,2.4-1.4,4-3.4,4
		c-1.6,0-3-0.7-4.4-2.8c-4-5.4-9.3-9.7-15.9-12.6L385.1,60.2z M393.4,38.6c7.7,0.8,14.4,2.8,19.1,5.6c3.5,2.3,5.1,4.4,5.1,7.4
		c0,2-1.6,4-3.5,4c-1.8,0-3.2-1-4.7-2.7c-4.5-5.5-10.2-9.7-16.6-12.2L393.4,38.6z"/>
	<path class="st0" d="M435.5,94.5c2.1,1.9,3.2,2.3,4.7,2.4c1.4,0,3-0.1,6.1-0.4c7-0.6,14-1.3,21.2-1.7c1.3-5.6,2.5-12.7,3.5-19.9
		c-6.1,0.5-11.2,1.1-14.5,1.6c-2,0.4-3.7,0.9-5,1.4c-0.5,0.2-0.9,0.5-1.5,0.5c-0.7,0-1.5-0.5-2.3-1.1c-1.5-1.2-3.2-3.9-4-6.6
		l1.5-0.8c1.4,1.4,2.8,2.3,4.8,2.3c1.5,0,2.2-0.1,3.7-0.2c4.4-0.3,9.4-0.8,13.9-1.3c2.3-0.3,3.3-0.6,4.1-1.4
		c0.5-0.6,1.3-1.1,1.6-1.1c0.8,0,1.8,0.5,3.9,2c2.7,2,3.9,3.4,3.9,4.4c0,0.8-0.6,1.5-1.8,2.3c-1,0.6-1.6,1.4-2.3,4
		c-0.9,3.5-2.2,8.5-3.5,13.9c3.2-0.1,5.4-0.2,8.3-0.3c1.5-0.2,2.3-0.5,3-0.8c0.6-0.4,1.5-0.6,2.5-0.6c0.8,0,2.7,0.7,5,2.1
		c1.7,1.1,2.3,2.3,2.3,3.3c0,1.3-0.9,2.2-2.3,2.2c-0.9,0-2.3-0.3-3.8-0.5c-3.3-0.6-6.1-0.6-9.6-0.7c-1,0-2,0-3,0
		c-2.6,0-5,0.1-7.4,0.2c-7.9,0.4-15.1,1.2-21,2.2c-1.5,0.3-2.8,0.6-3.7,1.1c-0.6,0.4-1.5,0.7-2.3,0.7c-0.9,0-3-1.2-4.9-3.1
		c-1.3-1.4-2.1-3-2.5-5.1L435.5,94.5z"/>
	<path class="st0" d="M501.9,71c2.8,2.7,4.1,3.5,8.2,3.5c0.2,0,0.5,0,0.7,0c12-0.2,22.5-0.6,34.3-1c6.4-0.3,10.6-0.7,12.6-1.3
		c2.6,0.2,4.6,0.6,6.1,1.3c1.4,0.6,2.3,1.5,2.3,2.7c0,2-1.5,2.8-6.3,2.8c-3.3,0-5.7,0-8.8,0c-0.7,0-1.5,0-2.3,0
		c-8.7,0-21.2,0.4-33.3,1.1c-1.5,0.1-3.1,0.4-4,0.6c-0.7,0.2-1.5,0.8-2.6,0.8c-1.5,0-3.4-1.1-5.7-4.1c-1.7-2.2-2.4-3.9-2.9-5.8
		L501.9,71z"/>
	<path class="st0" d="M580.5,64.6c2.8,0.2,6.7,0.8,10.2,2.5c4.3,2.2,6.1,4.3,6.1,7.8c0,2.1-1.5,4.2-4,4.2c-1.3,0-2.6-0.6-4-3.4
		c-2.2-4.3-5-7.3-9-9.4L580.5,64.6z M646.8,60.6c-12.5,17.5-26.7,30-45.8,42.4c-1,0.6-1.8,1.4-2.3,2.2c-0.6,0.8-1.4,1.2-2.3,1.2
		c-1.4,0-3.7-1.1-5.9-3.4c-3.1-3.1-4.2-5.1-4.3-6.7c0-0.4-0.1-0.8-0.1-1.2c0-0.4,0.1-0.8,0.1-1.1l1.3-0.4c2.3,2.7,4.1,3.7,5.3,3.7
		c1.5,0,3-0.4,4.7-1.4c17.2-9.9,32.7-21.1,47.8-36.9L646.8,60.6z M592.9,45.4c3.7,0.5,7.1,1.3,10.3,3.1c3.2,1.8,5.4,4.2,5.4,7.4
		c0,3-1.8,4.8-4,4.8s-3.4-1.7-4.2-3.7c-1.6-4.2-4.6-7.7-8.3-9.9L592.9,45.4z M628,40c4,0.7,8.5,2.3,11.3,4.5c1.7,1.4,3,3.2,3,5.3
		c0,2.3-1.3,3.5-3,3.5c-1.8,0-2.5-1.4-4-4c-1.5-2.5-4.3-5.9-7.7-7.9L628,40z M636.3,33.4c4.4,0.6,8.5,1.8,11.4,3.9
		c2.3,1.6,3.2,3.4,3.2,5.2c0,2.2-1.3,3.4-3,3.4c-1.1,0-2.1-0.5-3.6-3.2c-1.8-3-5-6-8.5-7.8L636.3,33.4z"/>
	<path class="st0" d="M661.3,64.8c6.9,2.2,10.2,6.4,10.2,10.2c0,3.2-1.7,4.4-3.8,4.4c-1.4,0-2.4-1-2.7-3.4
		c-0.7-4.2-2.3-7.4-4.7-10.2L661.3,64.8z M665.6,106.7c8.7-4.7,15-10,20.9-17c4.6-5.3,9-12.2,12-20.1c0.7-1.6,0.9-2.6,0.9-3.3
		c0-0.5-0.1-0.9-0.8-1.4c-0.8-0.5-2-1-3.1-1.3l0.2-1.9c0.9-0.1,1.6-0.2,2.4-0.2c0.8,0,1.5,0.1,2.2,0.2c1.1,0.1,2.2,0.5,2.9,0.9
		c1.5,0.9,2.6,1.9,3.7,3.1c0.9,0.9,1.2,1.5,1.2,2.3c0,0.9-0.5,1.5-1.3,1.9c-1,0.5-1.7,1.4-2,2c-4.5,8.9-8.6,15.4-13.7,20.8
		c-6.9,7.3-14.3,12.2-24.4,15.8L665.6,106.7z M676.7,60.7c7.2,2.5,9.7,7.4,9.7,10.5c0,3-1.5,4.5-3.7,4.5c-1.9,0-2.7-1.2-3.1-4
		c-0.6-4.1-1.5-6.8-4-10L676.7,60.7z"/>
	<path class="st0" d="M720.1,106.6c11.1-5.7,20.3-13,28.5-22.1c6.4-7.2,13-16.5,18.8-28c0.2-0.3,0.3-0.6,0.3-0.8
		c0-0.4-0.4-0.6-1.2-0.6c-4.7,0.2-9.7,0.6-12.7,0.8c-1.6,0-2.5-0.5-3.8-1.7c-6.4,9.1-14.4,17.6-25.4,23.7l-1.3-1.8
		c9.4-8.2,16.5-17.4,22.2-28.2c1.1-2.1,1.7-3.7,1.7-4.7c0-1.2-1.1-2.8-4.3-3.9l0.7-1.7c0.3,0,0.6,0,0.9,0c3.1,0,5.6,0.9,8.7,2.8
		c1.9,1.3,3.2,2.9,3.2,4.2c0,1-0.6,1.6-1.2,2.1c-0.6,0.5-1.2,1.1-1.7,1.7c-0.6,0.9-1.4,2.2-2.1,3.3c4.7-0.2,9.6-0.6,13-0.9
		c2.8-0.3,3.9-0.6,5-1.7c0.8-0.6,1.5-1.2,2.2-1.2c1,0,2.4,1,4.9,2.9c2.3,1.7,3.2,2.9,3.2,4c0,1.3-0.7,1.8-2.8,2.7
		c-1.4,0.5-2.2,1-3.2,2.9c-6.7,12.6-14.2,21.5-20.7,28.1c-8.5,8.6-19.7,15.6-32.1,19.8L720.1,106.6z"/>
</g>
</svg>
