<?xml version="1.0" encoding="utf-8"?>
<!-- Generator: Adobe Illustrator 24.1.2, SVG Export Plug-In . SVG Version: 6.00 Build 0)  -->
<svg version="1.1" id="レイヤー_1" xmlns="http://www.w3.org/2000/svg" xmlns:xlink="http://www.w3.org/1999/xlink" x="0px"
	 y="0px" viewBox="0 0 313.9 51.6" style="enable-background:new 0 0 313.9 51.6;" xml:space="preserve">
<style type="text/css">
	.st0{fill:#FFFFFF;}
</style>
<path class="st0" d="M11.4,0.5h-5v1.4H0v48.2h6.4v1.4h5v-1.4h6.4V1.9h-6.4V0.5z M6.4,45.9H5V6.2h1.4L6.4,45.9z M12.7,6.2v39.7h-1.4
	V6.2H12.7z"/>
<path class="st0" d="M19.1,0.5L19.1,0.5v39.7h6.4v1.4h-6.4v4.3h6.4v1.4h-6.4v4.3h17.7v-4.3h-6.4v-1.4h6.4v-4.3h-6.4v-1.4h6.4V0.5
	H19.1z M30.5,4.8h1.4v13.4h-1.4V4.8z M30.5,22.5h1.4V36h-1.4V22.5z M24.1,4.8h1.4v13.4h-1.4V4.8z M24.1,22.5h1.4V36h-1.4V22.5z"/>
<polygon class="st0" points="38.3,0.5 38.3,4.8 46.1,4.8 46.1,20.4 51.1,20.4 51.1,0.5 51.1,0.5 "/>
<polygon class="st0" points="39.7,47.3 38.3,47.3 38.3,51.6 44.7,51.6 44.7,27.5 39.7,27.5 "/>
<polygon class="st0" points="44.7,21.8 44.7,6.2 39.7,6.2 39.7,21.8 38.3,21.8 38.3,26 46.1,26 46.1,51.6 51.1,51.6 51.1,21.8 
	51.1,21.8 46.1,21.8 "/>
<path class="st0" d="M101.8,8.1c0.6-1.2,0.9-1.5,1.2-1.5s0.9,0.1,1.9,0.9c1,0.8,1.4,1.2,1.4,1.5s-0.4,0.7-1.2,1.2v1.8
	c0,6.1,0.1,8.3,0.1,9.3s-1.2,1.4-2.4,1.4c-0.5,0-0.8-0.3-0.8-0.7v-2.2h-9.7c0.1,10.2,0.2,12.3,0.2,13.1s-1.2,1.4-2.6,1.4
	c-0.6,0-0.9-0.2-0.9-0.7c0-1.3,0.1-4,0.2-13.8h-9.5v2.7c0,0.8-1,1.3-2.3,1.3c-0.6,0-0.9-0.2-0.9-0.7c0-1,0.2-3.6,0.2-11.3
	c0-2.3,0-3.9-0.1-5.4c1.4,0.3,2.7,0.8,3.9,1.5h8.8V8c0-4.2,0-6.3-0.1-8C93.5,0.4,94,0.7,94,1.1s-0.3,0.7-1.6,1.2v5.8H101.8z
	 M79.8,9.7v9.1h9.5c0-3.2,0-6.4,0-9.5h-9.1L79.8,9.7z M102.1,9.2h-9.7c0,3.2,0,6.4,0,9.5h9.7L102.1,9.2z"/>
<path class="st0" d="M125.6,2.8c0.6-1.2,0.9-1.5,1.2-1.5s0.7,0.1,1.7,0.9s1.1,1.1,1.1,1.5c0,0.3-0.3,0.6-1.3,1.1v2.6
	c0,6.2,0.2,8.7,0.2,9.7c0,0.7-0.8,1.2-2,1.2c-0.5,0-0.7-0.2-0.7-0.6v-0.9h-3.5v5.4h3.1c0.7-0.8,1.4-1.6,2.1-2.4
	c3.1,2.3,3.4,2.7,3.4,3.1s-0.2,0.4-0.6,0.4h-8v4.5c2.9-0.3,5.8-0.7,8.6-1.1l0.2,0.7c-5.4,1.7-10.8,3-16.3,4c-0.3,0.9-0.6,1.3-1,1.3
	s-0.8-0.6-2-4c2.6-0.2,5.2-0.4,7.8-0.6v-4.8h-3.3l-3.5,0.2v-1.5l3.5,0.2h3.4v-5.3h-3.5v1c0,0.8-1,1.3-2,1.3c-0.6,0-0.8-0.3-0.8-0.7
	c0-0.9,0.2-3.6,0.2-11.4c0-2.8,0-4.1-0.1-5.5c1.2,0.3,2.4,0.7,3.4,1.4H125.6z M116.1,4.3v4.9h3.5V3.9h-3L116.1,4.3z M116.1,15.6h3.5
	v-5.2h-3.5V15.6z M125.8,3.9h-2.9c0,0.4-0.3,0.8-0.7,0.9v4.4h3.5V3.9z M125.8,10.4h-3.5v5.2h3.5V10.4z M141.6,12.7
	c0.6-1.2,0.9-1.5,1.3-1.5s1,0.3,2,1s1.2,1.1,1.2,1.5s-0.4,0.8-1.6,1c-1.5,1.8-3.2,3.5-5.1,4.9l-0.5-0.4c1-1.7,1.9-3.5,2.7-5.4h-3
	c-0.1,0.3-0.3,0.6-0.7,0.7v3.3c0,8.5,0.1,11.1,0.1,12.4c0,1.9-1.7,3.1-4.2,3.1c-0.2-1.5-1.2-2.3-3.2-2.8l0.1-0.7
	c1.1,0.1,2.3,0.2,3.4,0.2c0.9,0,1.1-0.2,1.1-1V13.8h-2.3l-3.2,0.2v-1.5l3.2,0.2H141.6z M139.6,2.7c0.7-1.3,1-1.6,1.4-1.6
	s1,0.3,2.1,1.1s1.3,1.1,1.3,1.6c0,0.5-0.3,0.8-1.7,1c-1.5,1.5-3.2,2.9-5,4.2c0.7,0.4,1.1,1.1,1.1,1.9c0.1,0.8-0.5,1.6-1.4,1.7
	c-0.1,0-0.1,0-0.2,0c-0.7,0-1.3-0.4-1.5-1.1c-0.9-1.6-2.3-2.8-4-3.5l0.3-0.6c1.6,0.1,3.2,0.5,4.7,1.1c1-1.5,1.9-3,2.7-4.5h-5.3
	L130.7,4V2.5l3.5,0.2L139.6,2.7z"/>
<path class="st0" d="M151.9,22.5c4.4,0.6,8.3,2.1,10.5,3.7c1.8,1.3,2.6,2.4,2.6,3.5c0.1,0.9-0.6,1.7-1.5,1.7c0,0-0.1,0-0.1,0
	c-0.8-0.1-1.6-0.6-2-1.3c-2.6-3.1-5.9-5.4-9.7-6.9L151.9,22.5z M152.2,12.1c3.6,0.4,6.7,1.6,8.2,3c0.8,0.6,1.3,1.5,1.3,2.4
	c0.1,0.8-0.5,1.5-1.3,1.6c0,0-0.1,0-0.1,0c-0.8,0-1.5-0.5-1.8-1.1c-1.7-2.3-3.9-4.1-6.5-5.2L152.2,12.1z M155.6,3.2
	c2.7,0.2,5.4,1,7.8,2.3c1.4,0.9,2.1,1.8,2.1,3c0,0.8-0.6,1.5-1.4,1.6c-0.8,0-1.5-0.5-1.9-1.1c-1.8-2.2-4.1-3.9-6.8-5L155.6,3.2z"/>
<path class="st0" d="M172.8,26.1c0.5,0.6,1.2,0.9,1.9,1c0.6,0,1.2,0,2.5-0.2c2.9-0.3,5.7-0.5,8.7-0.7c0.5-2.3,1-5.2,1.4-8.1
	c-2.5,0.2-4.6,0.4-5.9,0.7c-0.7,0.1-1.4,0.3-2,0.6c-0.2,0.1-0.4,0.2-0.6,0.2c-0.3-0.1-0.7-0.2-0.9-0.4c-0.8-0.7-1.4-1.7-1.7-2.7
	l0.6-0.3c0.5,0.6,1.2,0.9,1.9,0.9c0.6,0,0.9,0,1.5-0.1c1.8-0.1,3.8-0.3,5.7-0.5c0.6,0,1.2-0.2,1.7-0.6c0.2-0.2,0.4-0.4,0.7-0.4
	c0.3,0,0.7,0.2,1.6,0.8c1.1,0.8,1.6,1.4,1.6,1.8c0,0.4-0.3,0.6-0.7,0.9c-0.5,0.3-0.7,0.5-1,1.6c-0.4,1.4-0.9,3.5-1.4,5.7l3.4-0.1
	c0.4,0,0.8-0.1,1.2-0.3c0.3-0.2,0.6-0.3,1-0.3c0.7,0.1,1.4,0.4,2,0.8c0.6,0.2,0.9,0.8,1,1.4c0,0.5-0.3,0.9-0.8,0.9
	c-0.1,0-0.1,0-0.2,0c-0.5,0-1-0.1-1.5-0.2c-1.3-0.2-2.7-0.3-4-0.3h-1.1c-1.1,0-2.1,0-3,0.1c-2.9,0.1-5.7,0.4-8.6,0.9
	c-0.5,0.1-1,0.2-1.5,0.4c-0.3,0.2-0.6,0.3-0.9,0.3c-0.8-0.2-1.5-0.7-2-1.3c-0.5-0.6-0.9-1.3-1-2.1L172.8,26.1z"/>
<path class="st0" d="M200,16.5c0.8,1,2.1,1.6,3.4,1.4h0.3c4.9-0.1,9.2-0.2,14-0.4c1.7,0,3.5-0.2,5.2-0.5c0.8,0,1.7,0.2,2.5,0.5
	c0.6,0.3,1,0.6,1,1.1c0,0.8-0.6,1.2-2.6,1.2h-4.5c-3.6,0-8.7,0.2-13.6,0.5c-0.5,0-1.1,0.1-1.6,0.3c-0.3,0.2-0.7,0.3-1.1,0.3
	c-0.6,0-1.4-0.5-2.3-1.7c-0.6-0.7-1-1.5-1.2-2.4L200,16.5z"/>
<path class="st0" d="M232.2,13.8c1.4,0.1,2.8,0.4,4.2,1c1.8,0.9,2.5,1.8,2.5,3.2c0.1,0.9-0.7,1.7-1.6,1.8c0,0,0,0-0.1,0
	c-0.6,0-1.1-0.3-1.6-1.4c-0.8-1.7-2.1-3-3.7-3.8L232.2,13.8z M259.4,12.2c-5.1,7.1-10.9,12.3-18.8,17.3c-0.4,0.2-0.7,0.6-0.9,0.9
	c-0.2,0.3-0.6,0.5-1,0.5c-1-0.1-1.8-0.6-2.4-1.4c-1.3-1.3-1.7-2.1-1.8-2.7c0-0.2,0-0.3,0-0.5s0-0.3,0-0.5l0.6-0.1
	c0.9,1.1,1.7,1.5,2.2,1.5c0.7,0,1.3-0.2,1.9-0.6c7.2-4.1,13.8-9.1,19.6-15.1L259.4,12.2z M237.3,6c1.5,0.2,2.9,0.6,4.2,1.3
	c1.2,0.5,2.1,1.7,2.2,3c0.1,1-0.6,1.8-1.5,1.9c0,0-0.1,0-0.1,0c-0.9,0-1.4-0.7-1.7-1.5c-0.6-1.7-1.8-3.1-3.4-4.1L237.3,6z
	 M251.7,3.8c1.7,0.3,3.2,0.9,4.6,1.8c0.7,0.5,1.2,1.3,1.2,2.2c0,0.9-0.5,1.4-1.2,1.4s-1-0.5-1.6-1.6c-0.8-1.3-1.9-2.4-3.2-3.2
	L251.7,3.8z M255.1,1.1c1.7,0.2,3.3,0.7,4.7,1.6c0.8,0.4,1.3,1.2,1.3,2.1c0.1,0.7-0.4,1.3-1.1,1.4c0,0-0.1,0-0.1,0
	c-0.4,0-0.9-0.2-1.5-1.3c-0.9-1.4-2.1-2.5-3.5-3.2L255.1,1.1z"/>
<path class="st0" d="M265.3,13.9c2.8,0.9,4.2,2.6,4.2,4.2c0,1.3-0.7,1.8-1.6,1.8c-0.6,0-1-0.4-1.1-1.4c-0.2-1.5-0.9-3-1.9-4.2
	L265.3,13.9z M267.1,31.1c3.3-1.7,6.2-4.1,8.6-7c2.1-2.4,3.8-5.2,5-8.2c0.2-0.4,0.3-0.9,0.4-1.4c0-0.2-0.1-0.5-0.3-0.5
	c-0.4-0.2-0.8-0.4-1.3-0.5l0.1-0.8c0.4,0,0.7-0.1,1-0.1c0.3,0,0.6,0,0.9,0.1c0.4,0,0.8,0.2,1.2,0.4c0.6,0.4,1.1,0.8,1.5,1.3
	c0.3,0.2,0.5,0.6,0.5,1c0,0.3-0.2,0.6-0.5,0.8c-0.4,0.2-0.7,0.5-0.8,0.8c-1.5,3.1-3.3,6-5.6,8.5c-2.7,3-6.2,5.2-10,6.5L267.1,31.1z
	 M271.6,12.2c2.9,1,4,3,4,4.3s-0.6,1.9-1.5,1.9c-0.8,0-1.1-0.5-1.3-1.6c-0.1-1.5-0.7-2.9-1.6-4.1L271.6,12.2z"/>
<path class="st0" d="M289.4,31c4.4-2.3,8.4-5.3,11.7-9.1c3.1-3.5,5.7-7.3,7.7-11.5c0.1-0.1,0.1-0.2,0.1-0.3c0-0.1-0.1-0.3-0.5-0.3
	c-1.9,0.1-4,0.3-5.2,0.3c-0.6,0-1.2-0.3-1.5-0.7c-2.7,4-6.2,7.3-10.4,9.7l-0.5-0.8c3.7-3.2,6.8-7.2,9.1-11.5
	c0.4-0.6,0.6-1.2,0.7-1.9c0-0.5-0.5-1.1-1.8-1.6l0.3-0.7h0.4c1.3,0,2.5,0.4,3.6,1.2c0.7,0.4,1.2,1,1.3,1.7c0,0.3-0.2,0.7-0.5,0.9
	c-0.3,0.2-0.5,0.5-0.7,0.7c-0.3,0.4-0.6,0.9-0.9,1.4c1.9-0.1,3.9-0.2,5.4-0.4c1.2-0.1,1.6-0.3,2-0.7c0.3-0.2,0.6-0.5,0.9-0.5
	s1,0.4,2,1.2s1.3,1.2,1.3,1.7s-0.3,0.8-1.2,1.1c-0.6,0.2-1.1,0.6-1.3,1.2c-2.2,4.2-5.1,8.1-8.5,11.5c-3.7,3.7-8.2,6.4-13.1,8.1
	L289.4,31z"/>
<path class="st0" d="M77.2,50.7v-0.2l1-0.5v-6.7l-1-0.5v-0.2h1.9l4.7,5.7v-5.1l-1.3-0.5v-0.2h3.1v0.2l-1,0.5v7.5h-0.5L79,44.5v5.5
	l1.3,0.5v0.2L77.2,50.7z"/>
<path class="st0" d="M98.5,50.7v-0.2l0.8-0.4l3.1-7.5h0.7l3.1,7.5l0.8,0.4v0.2h-3.2v-0.2l1.1-0.4l-0.9-2.2H101l-0.9,2.2l1,0.4v0.2
	H98.5z M101.3,47.2h2.4l-1.2-2.9L101.3,47.2z"/>
<path class="st0" d="M120.3,50.7v-0.2l1-0.5v-6.7l-1-0.5v-0.2h3.3v0.2l-1,0.5V50l1,0.5v0.2L120.3,50.7z M122.5,46.6l3.4-3.3
	l-0.9-0.4v-0.2h2.6v0.2l-0.8,0.3l-3.1,3.1l3.8,4l0.8,0.3v0.2h-2L122.5,46.6z"/>
<path class="st0" d="M140.6,50.7v-0.2l0.8-0.4l3.1-7.5h0.7l3.1,7.5l0.8,0.4v0.2h-3.2v-0.2l1.1-0.4l-0.9-2.2h-2.9l-0.9,2.2l1,0.4v0.2
	H140.6z M143.4,47.2h2.4l-1.2-2.9L143.4,47.2z"/>
<path class="st0" d="M162.3,50.7v-0.2l1-0.5v-6.7l-1-0.5v-0.2h1.9l4.7,5.7v-5.1l-1.3-0.5v-0.2h3.1v0.2l-1,0.5v7.5h-0.5l-5.1-6.2v5.5
	l1.3,0.5v0.2L162.3,50.7z"/>
<path class="st0" d="M188.6,50.8c-0.6,0-1.1-0.1-1.6-0.3c-0.5-0.2-0.9-0.5-1.3-0.9c-0.4-0.4-0.7-0.8-0.9-1.3c-0.4-1.1-0.4-2.2,0-3.3
	c0.2-0.5,0.5-0.9,0.9-1.3c0.4-0.4,0.8-0.7,1.3-0.9c1-0.4,2.2-0.4,3.3,0c0.5,0.2,0.9,0.5,1.3,0.9c0.4,0.4,0.7,0.8,0.9,1.3
	c0.4,1.1,0.4,2.2,0,3.3c-0.2,0.5-0.5,0.9-0.9,1.3c-0.4,0.4-0.8,0.7-1.3,0.9C189.7,50.7,189.1,50.8,188.6,50.8z M188.8,50.2
	c0.4,0,0.9-0.1,1.3-0.4c0.4-0.3,0.7-0.7,0.9-1.1c0.2-0.5,0.3-1.1,0.3-1.7c0-0.7-0.1-1.4-0.4-2.1c-0.2-0.5-0.6-1-1.1-1.4
	c-0.4-0.3-1-0.5-1.5-0.5c-0.5,0-0.9,0.1-1.3,0.4c-0.4,0.3-0.7,0.7-0.9,1.1c-0.2,0.5-0.3,1.1-0.3,1.7c0,0.7,0.1,1.4,0.4,2.1
	c0.2,0.5,0.6,1,1.1,1.4C187.7,50,188.2,50.2,188.8,50.2L188.8,50.2z"/>
<path class="st0" d="M221.6,50.7v-0.2l1-0.5l0.3-6.7l-1-0.5v-0.2h2.4l2.7,6.3l2.7-6.3h2.3v0.2l-1,0.5l0.2,6.7l0.9,0.5v0.2h-3v-0.2
	L230,50l-0.1-6l-3,6.8h-0.6l-2.9-6.6l-0.1,5.9l1,0.5v0.2L221.6,50.7z"/>
<path class="st0" d="M249.8,50.8c-0.6,0-1.2-0.1-1.7-0.3c-0.5-0.2-0.9-0.6-1.2-1.1c-0.3-0.6-0.4-1.3-0.4-1.9v-4.1l-1-0.5v-0.2h3.3
	v0.2l-1,0.5v4c0,0.6,0.1,1.1,0.3,1.6c0.2,0.4,0.5,0.7,0.9,0.8c0.4,0.2,0.8,0.3,1.2,0.3c0.3,0,0.7-0.1,1-0.2c0.3-0.2,0.6-0.4,0.7-0.7
	c0.2-0.4,0.3-0.9,0.3-1.3v-4.4l-1.2-0.5v-0.2h3v0.2l-1,0.5v4.2c0,0.7-0.1,1.3-0.4,1.9c-0.3,0.5-0.7,0.8-1.1,1.1
	C251,50.7,250.4,50.8,249.8,50.8z"/>
<path class="st0" d="M270.2,50.8c-0.4,0-0.9,0-1.3-0.2c-0.4-0.1-0.8-0.2-1.1-0.4l-0.1-2h0.2l0.6,1.3c0.2,0.2,0.5,0.4,0.8,0.5
	c0.3,0.1,0.5,0.2,0.8,0.2c0.4,0,0.8-0.1,1.1-0.4c0.3-0.3,0.4-0.6,0.4-1c0-0.3-0.1-0.6-0.2-0.8c-0.2-0.2-0.4-0.4-0.7-0.5l-1.1-0.5
	c-0.5-0.2-0.9-0.5-1.3-0.9c-0.3-0.3-0.5-0.8-0.5-1.3c0-0.3,0.1-0.6,0.2-0.8c0.2-0.3,0.3-0.5,0.6-0.7c0.2-0.2,0.5-0.4,0.8-0.5
	c0.3-0.1,0.6-0.2,0.9-0.2c0.4,0,0.7,0,1.1,0.1c0.3,0.1,0.7,0.2,1,0.4l0.1,2h-0.2l-0.6-1.3c-0.2-0.2-0.5-0.3-0.7-0.4
	c-0.2-0.1-0.5-0.1-0.7-0.1c-0.7,0-1.2,0.5-1.2,1.1c0,0,0,0.1,0,0.1c0,0.4,0.1,0.7,0.4,0.9c0.4,0.3,0.8,0.5,1.2,0.7
	c0.4,0.2,0.8,0.4,1.2,0.7c0.3,0.2,0.5,0.4,0.7,0.7c0.2,0.3,0.2,0.7,0.2,1c0,0.3-0.1,0.7-0.3,1c-0.2,0.3-0.4,0.5-0.6,0.7
	c-0.3,0.2-0.6,0.3-0.9,0.5C270.9,50.7,270.6,50.8,270.2,50.8z"/>
<path class="st0" d="M286.6,50.7v-0.2l1-0.5v-6.7l-1-0.5v-0.2h3.3v0.2l-1,0.5V50l1,0.5v0.2L286.6,50.7z"/>
<path class="st0" d="M307.7,50.8c-0.8,0-1.5-0.2-2.2-0.5c-0.6-0.3-1.1-0.8-1.4-1.4c-0.3-0.6-0.5-1.3-0.5-2c0-0.6,0.1-1.1,0.4-1.7
	c0.4-1,1.3-1.9,2.3-2.3c0.5-0.2,1.1-0.4,1.6-0.3c0.4,0,0.7,0,1,0.1c0.3,0,0.5,0.1,0.8,0.2c0.2,0.1,0.5,0.2,0.7,0.3l0.1,2.2h-0.2
	l-0.8-1.6c-0.2-0.2-0.5-0.3-0.8-0.4c-0.2-0.1-0.5-0.1-0.8-0.1c-0.5,0-1.1,0.1-1.5,0.4c-0.5,0.3-0.8,0.7-1,1.2
	c-0.3,0.6-0.4,1.2-0.4,1.8c0,0.7,0.1,1.3,0.4,1.9c0.2,0.5,0.6,0.9,1,1.2c0.4,0.3,0.9,0.4,1.4,0.4c0.4,0,0.7,0,1.1-0.2
	c0.3-0.1,0.5-0.2,0.8-0.4l0.8-1.4h0.3l-0.1,2C309.6,50.7,308.7,50.9,307.7,50.8L307.7,50.8z"/>
</svg>
